<mxfile host="app.diagrams.net" modified="2023-05-02T16:29:30.322Z" agent="Mozilla/5.0 (Windows NT 10.0; Win64; x64) AppleWebKit/537.36 (KHTML, like Gecko) Chrome/94.0.4606.81 Safari/537.36" etag="we4w1geqSGnTPN058AEA" version="21.2.4" type="github">
  <diagram name="Page-1" id="tguRPgptUBUBKhunE2SA">
    <mxGraphModel dx="1434" dy="796" grid="1" gridSize="10" guides="1" tooltips="1" connect="1" arrows="1" fold="1" page="1" pageScale="1" pageWidth="850" pageHeight="1100" math="0" shadow="0">
      <root>
        <mxCell id="0" />
        <mxCell id="1" parent="0" />
        <mxCell id="KCDeYtJDI4y8j9xUt5Yk-29" value="" style="group" vertex="1" connectable="0" parent="1">
          <mxGeometry x="330" y="360" width="140" height="70" as="geometry" />
        </mxCell>
        <mxCell id="KCDeYtJDI4y8j9xUt5Yk-27" value="" style="rounded=0;whiteSpace=wrap;html=1;" vertex="1" parent="KCDeYtJDI4y8j9xUt5Yk-29">
          <mxGeometry width="140" height="70" as="geometry" />
        </mxCell>
        <mxCell id="KCDeYtJDI4y8j9xUt5Yk-28" value="Business_Info" style="text;html=1;align=center;verticalAlign=middle;resizable=0;points=[];autosize=1;strokeColor=none;fillColor=none;" vertex="1" parent="KCDeYtJDI4y8j9xUt5Yk-29">
          <mxGeometry x="20" y="20" width="100" height="30" as="geometry" />
        </mxCell>
      </root>
    </mxGraphModel>
  </diagram>
</mxfile>
